<?xml version="1.0" ?><!DOCTYPE svg  PUBLIC '-//W3C//DTD SVG 1.1 Tiny//EN'  'http://www.w3.org/Graphics/SVG/1.1/DTD/svg11-tiny.dtd'><svg baseProfile="tiny" height="512px" id="Layer_1" version="1.1" viewBox="0 0 512 512" width="512px" xml:space="preserve" xmlns="http://www.w3.org/2000/svg" xmlns:xlink="http://www.w3.org/1999/xlink"><rect fill="#FFFFFF" height="366" width="366" x="130" y="16"/><g><path d="M512,398H114V0h398V398z M150,362h326V36H150V362z" fill="#0C78B8"/></g><rect fill="#FFFFFF" height="365" width="366" x="16" y="130"/><g><path d="M398,512H0V113h398V512z M36,476h327V149H36V476z" fill="#0C78B8"/></g><path d="M68.441,273.966c0,0,77.213,78.798,84.364,170.469c0,0,44.315-170.469,177.324-263.944  c0,0-94.374,27.501-165.879,133.822C164.25,314.313,111.334,255.639,68.441,273.966z" fill="#56AD89"/></svg>