<?xml version="1.0" encoding="UTF-8" standalone="no"?><!DOCTYPE svg PUBLIC "-//W3C//DTD SVG 1.1//EN" "http://www.w3.org/Graphics/SVG/1.1/DTD/svg11.dtd"><svg width="100%" height="100%" viewBox="0 0 287 287" version="1.1" xmlns="http://www.w3.org/2000/svg" xmlns:xlink="http://www.w3.org/1999/xlink" xml:space="preserve" xmlns:serif="http://www.serif.com/" style="fill-rule:evenodd;clip-rule:evenodd;stroke-linejoin:round;stroke-miterlimit:1.41421;"><path d="M277.115,0l-1.272,0l-266.904,0c-4.934,0 -8.939,4.005 -8.939,8.939l0,53.635c0,4.943 4.005,8.939 8.939,8.939l268.176,0c4.934,0 8.939,-3.996 8.939,-8.939l0,-53.635c0,-4.934 -4.004,-8.939 -8.939,-8.939Zm0,107.27l-268.176,0c-4.934,0 -8.939,3.996 -8.939,8.939l0,53.635c0,4.943 4.005,8.939 8.939,8.939l268.176,0c4.934,0 8.939,-3.996 8.939,-8.939l0,-53.635c0,-4.943 -4.004,-8.939 -8.939,-8.939Zm0,107.27l-268.176,0c-4.934,0 -8.939,3.996 -8.939,8.94l0,53.635c0,4.943 4.005,8.939 8.939,8.939l268.176,0c4.934,0 8.939,-3.996 8.939,-8.939l0,-53.635c0,-4.944 -4.004,-8.94 -8.939,-8.94Z" style="fill:#3db39e;fill-rule:nonzero;"/></svg>