<?xml version="1.0" encoding="UTF-8" standalone="no"?><!DOCTYPE svg PUBLIC "-//W3C//DTD SVG 1.1//EN" "http://www.w3.org/Graphics/SVG/1.1/DTD/svg11.dtd"><svg width="100%" height="100%" viewBox="0 0 512 512" version="1.1" xmlns="http://www.w3.org/2000/svg" xmlns:xlink="http://www.w3.org/1999/xlink" xml:space="preserve" xmlns:serif="http://www.serif.com/" style="fill-rule:evenodd;clip-rule:evenodd;stroke-linejoin:round;stroke-miterlimit:1.41421;"><path d="M458.274,191.451l26.541,0c7.204,0 13.046,-5.841 13.046,-13.046l0,-121.458c0,-7.204 -5.841,-13.046 -13.046,-13.046l-189.837,0c-7.204,0 -13.046,5.841 -13.046,13.046l0,121.458c0,7.204 5.841,13.046 13.046,13.046l26.532,0l-2.757,47.08c-0.406,6.931 7.852,10.814 12.931,6.079l57.018,-53.159l69.572,0Z" style="fill:#cee8fa;fill-rule:nonzero;"/><g><path d="M326.491,260.837c-6.024,0 -11.852,-2.517 -15.992,-6.906c-4.136,-4.386 -6.216,-10.148 -5.861,-16.227l1.879,-32.113l-11.54,0c-14.991,0 -27.187,-12.196 -27.187,-27.187l0,-121.459c0,-14.99 12.196,-27.186 27.187,-27.186l189.835,0c14.991,0 27.187,12.196 27.187,27.186l0,121.458c0,14.991 -12.196,27.187 -27.187,27.187l-90.541,0l-52.944,49.361c-4.069,3.795 -9.339,5.886 -14.836,5.886Zm-30.418,-83.526l25.438,0c3.894,0 7.616,1.606 10.285,4.439c2.672,2.832 4.057,6.642 3.831,10.527l-1.817,31.02l45.251,-42.188c2.619,-2.441 6.063,-3.798 9.642,-3.798l95.016,0l0,-119.271l-187.646,0l0,119.271Z" style="fill:#2d527c;fill-rule:nonzero;"/><path d="M150.5,183c83.063,0 150.5,67.437 150.5,150.5c0,83.063 -67.437,150.5 -150.5,150.5c-83.063,0 -150.5,-67.437 -150.5,-150.5c0,-83.063 67.437,-150.5 150.5,-150.5Zm0,30.1c66.451,0 120.4,53.949 120.4,120.4c0,66.451 -53.949,120.4 -120.4,120.4c-66.451,0 -120.4,-53.949 -120.4,-120.4c0,-66.451 53.949,-120.4 120.4,-120.4Z" style="fill:#2d527c;"/><circle cx="150.5" cy="333.5" r="127.5" style="fill:#fff;"/><path d="M204.601,283.007c-12.945,0 -23.478,10.531 -23.478,23.478c0,12.947 10.533,23.478 23.478,23.478c12.945,0 23.478,-10.533 23.478,-23.478c0,-12.945 -10.533,-23.478 -23.478,-23.478Z" style="fill:#2d527c;fill-rule:nonzero;"/><path d="M94.041,283.007c-12.945,0 -23.478,10.531 -23.478,23.478c0,12.947 10.531,23.478 23.478,23.478c12.947,0 23.478,-10.533 23.478,-23.478c0,-12.945 -10.533,-23.478 -23.478,-23.478Z" style="fill:#2d527c;fill-rule:nonzero;"/><path d="M149.321,424.747c-32.924,0 -61.918,-19.82 -73.867,-50.491c-2.834,-7.276 0.766,-15.473 8.043,-18.308c7.276,-2.828 15.472,0.766 18.308,8.043c7.686,19.728 26.336,32.477 47.516,32.477c21.18,0 39.829,-12.749 47.516,-32.477c2.836,-7.275 11.035,-10.871 18.308,-8.043c7.276,2.835 10.876,11.033 8.043,18.308c-11.949,30.671 -40.944,50.491 -73.867,50.491Z" style="fill:#2d527c;fill-rule:nonzero;"/></g></svg>