<?xml version="1.0" ?><svg height="64px" version="1.1" viewBox="0 0 64 64" width="64px" xmlns="http://www.w3.org/2000/svg" xmlns:xlink="http://www.w3.org/1999/xlink"><defs/><g fill="none" fill-rule="evenodd" id="Page-1" stroke="none" stroke-width="1"><g id="Group" transform="translate(-3456.000000, -1280.000000)"/><path d="M37.3,1 L5,1 C2.8,1 1,2.8 1,5 L1,59 C1,61.2 2.8,63 5,63 L51,63 C53.2,63 55,61.2 55,59 L55,18.7 C55,17.6 54.6,16.6 53.8,15.9 L40.1,2.2 C39.4,1.4 38.4,1 37.3,1 L37.3,1 Z" fill="#F2EADB" id="Shape"/><path d="M5,59 L5,5 L37.3,5 L51,18.7 L51,59 L5,59 Z" fill="#FFFFFF" id="Shape"/><path d="M40.2,2.2 C39.9,1.9 39.5,1.6 39,1.4 L39,5.4 L39,17 C39,19.2 40.8,21 43,21 L54.6,21 C54.6,20.9 54.7,20.8 55,20.7 L55,18.7 C55,17.6 54.6,16.6 53.8,15.9 L40.2,2.2 L40.2,2.2 Z" fill="#E6D6B7" id="Shape"/><path d="M53.8,15.8 L40.1,2.1 C39.8,1.8 39.4,1.5 38.9,1.3 L38.9,12.9 C38.9,15.1 40.7,16.9 42.9,16.9 L54.5,16.9 C54.4,16.6 54.2,16.2 53.8,15.8 L53.8,15.8 Z" fill="#F2EADB" id="Shape"/><path d="M37.3,1 L5,1 C2.8,1 1,2.8 1,5 L1,59 C1,61.2 2.8,63 5,63 L51,63 C53.2,63 55,61.2 55,59 L55,18.7 C55,17.6 54.6,16.6 53.8,15.9 L40.1,2.2 C39.4,1.4 38.4,1 37.3,1 L37.3,1 Z" id="Shape" stroke="#526367" stroke-width="2"/><path d="M39,1.4 L39,13 C39,15.2 40.8,17 43,17 L54.6,17" id="Shape" stroke="#526367" stroke-width="2"/><path d="M27,33 L19,25 L11,33 L11,1 L27,1 L27,33 Z" fill="#98E5AC" id="Shape"/><rect fill="#C5EFCC" height="4" id="Rectangle-path" width="16" x="11" y="1"/><path d="M27,33 L19,25 L11,33 L11,1 L27,1 L27,33 Z" id="Shape" stroke="#526367" stroke-width="2"/></g></svg>