<?xml version="1.0" encoding="UTF-8" standalone="no"?><!DOCTYPE svg PUBLIC "-//W3C//DTD SVG 1.1//EN" "http://www.w3.org/Graphics/SVG/1.1/DTD/svg11.dtd"><svg width="100%" height="100%" viewBox="0 0 64 64" version="1.1" xmlns="http://www.w3.org/2000/svg" xmlns:xlink="http://www.w3.org/1999/xlink" xml:space="preserve" xmlns:serif="http://www.serif.com/" style="fill-rule:evenodd;clip-rule:evenodd;"><g id="Page-1"><path id="Shape" d="M41.3,1l-32.3,0c-2.2,0 -4,1.8 -4,4l0,54c0,2.2 1.8,4 4,4l46,0c2.2,0 4,-1.8 4,-4l0,-40.3c0,-1.1 -0.4,-2.1 -1.2,-2.8l-13.7,-13.7c-0.7,-0.8 -1.7,-1.2 -2.8,-1.2Z" style="fill:#f2eadb;"/><path id="Shape1" serif:id="Shape" d="M9,59l0,-54l32.3,0l13.7,13.7l0,40.3l-46,0Z" style="fill:#fff;"/><path id="Shape2" serif:id="Shape" d="M44.2,2.2c-0.3,-0.3 -0.7,-0.6 -1.2,-0.8l0,15.6c0,2.2 1.8,4 4,4l11.6,0c0,-0.1 0.1,-0.2 0.4,-0.3l0,-2c0,-1.1 -0.4,-2.1 -1.2,-2.8l-13.6,-13.7Z" style="fill:#e6d6b7;"/><path id="Shape3" serif:id="Shape" d="M57.8,15.8l-13.7,-13.7c-0.3,-0.3 -0.7,-0.6 -1.2,-0.8l0,11.6c0,2.2 1.8,4 4,4l11.6,0c-0.1,-0.3 -0.3,-0.7 -0.7,-1.1Z" style="fill:#f2eadb;"/><path id="Shape4" serif:id="Shape" d="M41.3,1l-32.3,0c-2.2,0 -4,1.8 -4,4l0,54c0,2.2 1.8,4 4,4l46,0c2.2,0 4,-1.8 4,-4l0,-40.3c0,-1.1 -0.4,-2.1 -1.2,-2.8l-13.7,-13.7c-0.7,-0.8 -1.7,-1.2 -2.8,-1.2Z" style="fill:none;stroke:#526367;stroke-width:2px;"/><path id="Shape5" serif:id="Shape" d="M43,1.4l0,11.6c0,2.2 1.8,4 4,4l11.6,0" style="fill:none;stroke:#526367;stroke-width:2px;"/><path d="M23.707,33.167l-2.768,-3.108l-8.396,7.478c-1.781,1.586 -1.794,4.278 -0.016,5.873l8.338,7.478l2.779,-3.099l-8.149,-7.308l8.212,-7.314Z" style="fill:#006df0;fill-rule:nonzero;"/><path d="M51.457,37.523l-8.396,-7.478l-2.768,3.108l8.212,7.315l-8.149,7.308l2.779,3.098l8.338,-7.478c1.778,-1.594 1.765,-4.286 -0.016,-5.873Z" style="fill:#006df0;fill-rule:nonzero;"/><path d="M31.954,30l-4.162,20.809l4.162,0l4.162,-20.809l-4.162,0Z" style="fill:#006df0;fill-rule:nonzero;"/></g></svg>