<?xml version="1.0" encoding="UTF-8" standalone="no"?><!DOCTYPE svg PUBLIC "-//W3C//DTD SVG 1.1//EN" "http://www.w3.org/Graphics/SVG/1.1/DTD/svg11.dtd"><svg width="100%" height="100%" viewBox="0 0 64 32" version="1.1" xmlns="http://www.w3.org/2000/svg" xmlns:xlink="http://www.w3.org/1999/xlink" xml:space="preserve" xmlns:serif="http://www.serif.com/" style="fill-rule:evenodd;clip-rule:evenodd;stroke-linejoin:round;stroke-miterlimit:1.41421;"><path d="M32,16c0,8.837 -7.163,16 -16,16c-8.837,0 -16,-7.163 -16,-16c0,-8.837 7.163,-16 16,-16c8.837,0 16,7.163 16,16Z" style="fill:#1a94ba;fill-rule:nonzero;"/><path d="M16,30.955c-3.995,0 -7.75,-1.556 -10.575,-4.38c-2.824,-2.825 -4.38,-6.58 -4.38,-10.575c0,-3.995 1.556,-7.75 4.38,-10.575c2.825,-2.824 6.58,-4.38 10.575,-4.38c3.995,0 7.75,1.556 10.575,4.38c2.824,2.825 4.38,6.58 4.38,10.575c0,3.995 -1.556,7.75 -4.38,10.575c-2.825,2.824 -6.58,4.38 -10.575,4.38Z" style="fill:#6dccf2;fill-rule:nonzero;"/><path d="M18.458,15.458c-1.454,1.136 -1.48,1.929 -1.48,3.303c0,0.503 -0.264,1.084 -1.559,1.084c-1.084,0 -1.454,-0.396 -1.454,-1.771c0,-2.272 1.004,-3.356 1.771,-4.016c0.872,-0.74 2.351,-1.559 2.351,-2.986c0,-1.216 -1.056,-1.797 -2.378,-1.797c-2.695,0 -2.114,2.035 -3.541,2.035c-0.713,0 -1.585,-0.476 -1.585,-1.507c0,-1.427 1.638,-3.541 5.205,-3.541c3.383,0 5.629,1.876 5.629,4.36c0,2.484 -2.246,4.281 -2.959,4.836Zm-0.978,8.245c0,1.083 -0.899,2.035 -2.035,2.035c-1.136,0 -2.008,-0.952 -2.008,-2.035c0,-1.11 0.898,-2.035 2.008,-2.035c1.11,0 2.035,0.925 2.035,2.035Z" style="fill:#fff;fill-rule:nonzero;"/><path d="M64,16c0,8.837 -7.163,16 -16,16c-8.837,0 -16,-7.163 -16,-16c0,-8.837 7.163,-16 16,-16c8.837,0 16,7.163 16,16Z" style="fill:#1a94ba;fill-rule:nonzero;"/><path d="M48,30.955c-3.995,0 -7.75,-1.556 -10.575,-4.38c-2.824,-2.825 -4.38,-6.58 -4.38,-10.575c0,-3.995 1.556,-7.75 4.38,-10.575c2.825,-2.824 6.58,-4.38 10.575,-4.38c3.995,0 7.75,1.556 10.575,4.38c2.824,2.825 4.38,6.58 4.38,10.575c0,3.995 -1.556,7.75 -4.38,10.575c-2.825,2.824 -6.58,4.38 -10.575,4.38Z" style="fill:#6cdfa5;fill-rule:nonzero;"/><path d="M50.458,15.458c-1.454,1.136 -1.48,1.929 -1.48,3.303c0,0.503 -0.264,1.084 -1.559,1.084c-1.084,0 -1.454,-0.396 -1.454,-1.771c0,-2.272 1.004,-3.356 1.771,-4.016c0.872,-0.74 2.351,-1.559 2.351,-2.986c0,-1.216 -1.056,-1.797 -2.378,-1.797c-2.695,0 -2.114,2.035 -3.541,2.035c-0.713,0 -1.585,-0.476 -1.585,-1.507c0,-1.427 1.638,-3.541 5.205,-3.541c3.383,0 5.629,1.876 5.629,4.36c0,2.484 -2.246,4.281 -2.959,4.836Zm-0.978,8.245c0,1.083 -0.899,2.035 -2.035,2.035c-1.136,0 -2.008,-0.952 -2.008,-2.035c0,-1.11 0.898,-2.035 2.008,-2.035c1.11,0 2.035,0.925 2.035,2.035Z" style="fill:#fff;fill-rule:nonzero;"/></svg>