<?xml version="1.0" encoding="UTF-8" standalone="no"?><!DOCTYPE svg PUBLIC "-//W3C//DTD SVG 1.1//EN" "http://www.w3.org/Graphics/SVG/1.1/DTD/svg11.dtd"><svg width="100%" height="100%" viewBox="0 0 398 398" version="1.1" xmlns="http://www.w3.org/2000/svg" xmlns:xlink="http://www.w3.org/1999/xlink" xml:space="preserve" xmlns:serif="http://www.serif.com/" style="fill-rule:evenodd;clip-rule:evenodd;stroke-linejoin:round;stroke-miterlimit:1.41421;"><g><path d="M236.4,278.8l98.8,98.8c12.8,12.8 33.2,12.8 45.6,0.4c12.4,-12.4 12.4,-32.8 -0.4,-45.6l-98.8,-98.8" style="fill:#f9c13c;fill-rule:nonzero;"/><path d="M236.4,278.8l98.8,98.8c12.8,12.8 33.2,12.8 45.6,0.4l-121.6,-121.6l-22.8,22.4Z" style="fill:#e6ae31;fill-rule:nonzero;"/><path d="M358.4,395.2c10.8,0 20.8,-4 28,-11.6c7.6,-7.6 11.6,-17.6 11.6,-28.4c0,-10.8 -4.4,-20.8 -12,-28.4l-98.8,-98.8l-11.2,11.2l98.8,98.8c4.8,4.8 7.2,10.8 7.2,17.2c0,6.4 -2.4,12.4 -6.8,16.8c-4.4,4.4 -10.4,6.8 -16.8,6.8c-6.4,0 -12.8,-2.8 -17.2,-7.2l-98.8,-98.8l-11.2,11.2l98.4,99.2c7.6,7.6 17.6,12 28.8,12c-0.4,0 0,0 0,0Z" style="fill:#b98915;fill-rule:nonzero;"/><circle cx="152" cy="154.8" r="144" style="fill:#9ce0ff;"/><path d="M220,272.4c-65.2,37.6 -148.4,15.2 -185.6,-49.6c-37.6,-65.2 -15.2,-148.4 49.6,-185.6c-61.6,117.6 0.4,201.6 136,235.2Z" style="fill:#89d6fa;fill-rule:nonzero;"/><path d="M152,306.8c84,0 152,-68 152,-152c0,-84 -68,-152 -152,-152c-84,0 -152,68 -152,152c0,84 68,152 152,152Zm0,-288c74.8,0 136,61.2 136,136c0,74.8 -61.2,136 -136,136c-74.8,0 -136,-61.2 -136,-136c0,-74.8 61.2,-136 136,-136Z" style="fill:#61a1dd;fill-rule:nonzero;"/><g><path d="M237.2,103.6c1.6,0 3.2,-0.4 4.8,-1.6c3.6,-2.8 4.4,-7.6 1.6,-11.2l-3.6,-4.8c-2.8,-3.6 -7.6,-4.4 -11.2,-1.6c-3.6,2.8 -4.4,7.6 -1.6,11.2l3.6,4.8c1.6,2 4,3.2 6.4,3.2Z" style="fill:#fff;fill-rule:nonzero;"/><path d="M222,239.2c2,0 4,-0.8 5.2,-2c23.6,-21.2 36.8,-51.2 36.8,-82.4c0,-10 -1.2,-19.6 -4,-28.4c-1.2,-4.4 -5.6,-6.8 -10,-5.6c-4.4,1.2 -6.8,5.6 -5.6,10c2,7.6 3.2,15.6 3.2,24c0,26.8 -11.6,52.4 -31.2,70.4c-3.2,2.8 -3.6,8 -0.4,11.2c1.6,2 4,2.8 6,2.8Z" style="fill:#fff;fill-rule:nonzero;"/></g></g></svg>