<?xml version="1.0" ?><svg height="100px" preserveAspectRatio="none" version="1.1" viewBox="0 0 100 100" width="100px" xmlns="http://www.w3.org/2000/svg" xmlns:xlink="http://www.w3.org/1999/xlink"><defs><g id="Layer0_0_FILL"><path d=" M 49.1 20.15 Q 45 20.15 45.8 47.75 46.1 58.45 47.05 66.75 47.2 68.1 47.4 69.25 45.4 67.15 40.7 62.05 34 54.9 33.8 54.9 33 54.9 32.95 55.15 L 33.05 55.4 Q 32.25 60.5 40.2 70.55 47.6 79.9 49.75 79.9 67.05 58.3 67.05 58.15 67.05 56.7 66 55.85 65.15 55.25 64.25 55.25 61.8 55.25 56.2 61.55 55.65 62.2 51.6 67.25 51.7 55.2 52.8 26.15 52.8 22.45 51.75 21.1 51 20.15 49.1 20.15 Z" fill="#000000" stroke="none"/></g></defs><g transform="matrix( 1, 0, 0, 1, 0,0) "><use xlink:href="#Layer0_0_FILL"/></g></svg>