<?xml version="1.0" encoding="UTF-8" standalone="no"?><!DOCTYPE svg PUBLIC "-//W3C//DTD SVG 1.1//EN" "http://www.w3.org/Graphics/SVG/1.1/DTD/svg11.dtd"><svg width="100%" height="100%" viewBox="0 0 32 32" version="1.1" xmlns="http://www.w3.org/2000/svg" xmlns:xlink="http://www.w3.org/1999/xlink" xml:space="preserve" xmlns:serif="http://www.serif.com/" style="fill-rule:evenodd;clip-rule:evenodd;stroke-linejoin:round;stroke-miterlimit:1.41421;"><path d="M25.524,22.825l-9.524,0c-0.261,0 -0.476,-0.215 -0.476,-0.476c0,-0.261 0.215,-0.476 0.476,-0.476l9.048,0l0,-14.921l-14.921,0l0,9.048c0,0.261 -0.215,0.476 -0.476,0.476c-0.261,0 -0.476,-0.215 -0.476,-0.476l0,-9.524c0,-0.261 0.215,-0.476 0.476,-0.476l15.873,0c0.261,0 0.476,0.215 0.476,0.476l0,15.873c0,0.261 -0.215,0.476 -0.476,0.476Z" style="fill-rule:nonzero;"/><path d="M19.175,26l-12.699,0c-0.261,0 -0.476,-0.215 -0.476,-0.476l0,-12.699c0,-0.261 0.215,-0.476 0.476,-0.476l3.175,0c0.261,0 0.476,0.215 0.476,0.476c0,0.262 -0.215,0.477 -0.476,0.477l-2.699,0l0,11.746l11.746,0l0,-2.699c0,-0.261 0.215,-0.476 0.477,-0.476c0.261,0 0.476,0.215 0.476,0.476l0,3.175c0,0.261 -0.215,0.476 -0.476,0.476Z" style="fill-rule:nonzero;"/><path d="M10.286,22.19c-0.261,0 -0.476,-0.215 -0.476,-0.476c0,-0.126 0.05,-0.247 0.139,-0.336l8.321,-8.321c0.088,-0.082 0.204,-0.128 0.324,-0.128c0.262,0 0.477,0.215 0.477,0.477c0,0.12 -0.046,0.236 -0.128,0.324l-8.321,8.321c-0.089,0.089 -0.21,0.139 -0.336,0.139Z" style="fill-rule:nonzero;"/><path d="M18.606,19.257c-0.261,0 -0.476,-0.215 -0.476,-0.476l0,-4.911l-4.911,0c-0.261,0 -0.476,-0.215 -0.476,-0.476c0,-0.262 0.215,-0.477 0.476,-0.477l5.397,0c0.261,0 0.476,0.215 0.476,0.477l0,5.396c-0.005,0.258 -0.218,0.467 -0.476,0.467c-0.003,0 -0.006,0 -0.01,0Z" style="fill-rule:nonzero;"/></svg>