<?xml version="1.0" encoding="UTF-8" standalone="no"?><!DOCTYPE svg PUBLIC "-//W3C//DTD SVG 1.1//EN" "http://www.w3.org/Graphics/SVG/1.1/DTD/svg11.dtd"><svg width="100%" height="100%" viewBox="0 0 32 32" version="1.1" xmlns="http://www.w3.org/2000/svg" xmlns:xlink="http://www.w3.org/1999/xlink" xml:space="preserve" xmlns:serif="http://www.serif.com/" style="fill-rule:evenodd;clip-rule:evenodd;stroke-linejoin:round;stroke-miterlimit:1.41421;"><path d="M25.524,25.952l-19.048,0c-0.261,0 -0.476,-0.215 -0.476,-0.476c0,-0.261 0.215,-0.476 0.476,-0.476l18.572,0l0,-18.048l-18.096,0l0,18.048c0,0.261 -0.952,0.737 -0.952,0.476l0,-19c0,-0.261 0.215,-0.476 0.476,-0.476l19.048,0c0.261,0 0.476,0.215 0.476,0.476l0,19c0,0.261 -0.215,0.476 -0.476,0.476Z" style="fill-rule:nonzero;"/><path d="M25.524,25.952l-19.048,0c-0.261,0 -0.476,-0.215 -0.476,-0.476c0,-0.261 0.215,-0.376 0.476,-0.376l18.624,0l0,-18.2l-18.2,0l0,18.2c0,0.261 -0.9,0.637 -0.9,0.376l0,-19c0,-0.261 0.215,-0.476 0.476,-0.476l19.048,0c0.261,0 0.476,0.215 0.476,0.476l0,19c0,0.261 -0.215,0.476 -0.476,0.476Z" style="fill-rule:nonzero;"/><path d="M15.667,9.752c0.185,-0.184 0.488,-0.184 0.673,0.001c0.089,0.089 0.139,0.21 0.139,0.336l0,11.767c-0.004,0.121 -0.054,0.235 -0.139,0.32c-0.185,0.185 -0.489,0.185 -0.673,0c-0.085,-0.085 -0.135,-0.199 -0.139,-0.32l0,-11.767c-0.001,-0.126 0.05,-0.247 0.139,-0.337Z" style="fill-rule:nonzero;"/><path d="M11.857,17.71c0.185,-0.185 0.489,-0.185 0.674,0l3.472,3.473l3.473,-3.473c0.185,-0.185 0.489,-0.185 0.674,0c0.184,0.185 0.184,0.489 0,0.674l-3.817,3.816c-0.184,0.184 -0.488,0.184 -0.673,0l-3.816,-3.816c-0.179,-0.186 -0.176,-0.485 0.006,-0.667c0.003,-0.002 0.005,-0.005 0.007,-0.007Z" style="fill-rule:nonzero;"/></svg>