<svg xmlns="http://www.w3.org/2000/svg" xmlns:xlink="http://www.w3.org/1999/xlink" width="100%" height="100%" viewBox="0 0 94 75" fill-rule="evenodd" stroke-linejoin="round" stroke-miterlimit="1.41421"><g fill-rule="nonzero"><path d="M91.346 75H2.404C1.085 75 0 73.897 0 72.557V2.443C0 1.103 1.085 0 2.404 0h88.942c1.32 0 2.404 1.103 2.404 2.443v70.114c0 1.35-1.076 2.443-2.403 2.443z" fill="#c7cfe2"/><path d="M7.33 14.66H86.4c1.34.001 2.443 1.103 2.443 2.444V67.67a2.46 2.46 0 0 1-2.443 2.444H7.33a2.46 2.46 0 0 1-2.444-2.444l.001-50.566c0-1.34 1.103-2.443 2.443-2.444z" fill="#fff"/><path d="M7.342 9.773c-1.35 0-2.455-1.093-2.455-2.443s1.08-2.443 2.43-2.443h.025A2.44 2.44 0 0 1 9.786 7.33c0 1.35-1.093 2.443-2.443 2.443h-.001z" fill="#ff507d"/><path d="M14.672 9.773c-1.35 0-2.455-1.093-2.455-2.443s1.08-2.443 2.432-2.443h.024c1.35 0 2.443 1.093 2.443 2.443s-1.093 2.443-2.443 2.443z" fill="#fff082"/><path d="M22.003 9.773c-1.35 0-2.456-1.093-2.456-2.443s1.08-2.443 2.432-2.443h.024a2.44 2.44 0 1 1 0 4.886z" fill="#c8ff82"/><path d="M69.296 9.773H31.764c-1.34 0-2.443-1.102-2.443-2.44 0-1.352 1.093-2.445 2.443-2.445h37.532a2.44 2.44 0 1 1 0 4.886zm17.103 0h-7.33c-1.35 0-2.443-1.093-2.443-2.443s1.093-2.443 2.443-2.443h7.33c1.35 0 2.444 1.093 2.444 2.443S87.75 9.773 86.4 9.773z" fill="#afb9d2"/><g fill="#d0d6d9"><use xlink:href="#B"/><use xlink:href="#B" y="4.787"/></g><use xlink:href="#C" fill="#8fd8ff"/><path d="M81.46 44.303H12.244c-.652 0-1.183-.716-1.183-1.368s.53-1.367 1.183-1.367H81.46c.65 0 1.183.716 1.183 1.367s-.532 1.368-1.183 1.368zm0 4.797H12.244c-.652 0-1.183-.716-1.183-1.367s.53-1.368 1.183-1.368H81.46c.65 0 1.183.716 1.183 1.368S82.1 49.1 81.46 49.1z" fill="#d0d6d9"/><use xlink:href="#C" y="15.728" fill="#8fd8ff"/></g><path d="M88.905 61.976a1.44 1.44 0 0 0-1.437-1.437h-81.144a1.44 1.44 0 0 0-1.437 1.437v6.7c0 .793.644 1.436 1.437 1.436h81.144c.793 0 1.437-.643 1.437-1.436v-6.7z" fill="#ff6469"/><g fill-rule="nonzero"><path d="M81.474 63.96h-8.092c-.65 0-1.18.613-1.18 1.368s.53 1.368 1.18 1.368h8.092c.65 0 1.18-.613 1.18-1.368s-.528-1.368-1.18-1.368z" fill="#ffdc69"/><path d="M67.626 63.96H12.318c-.652 0-1.18.613-1.18 1.368s.528 1.368 1.18 1.368h55.308c.65 0 1.18-.613 1.18-1.368s-.53-1.368-1.18-1.368z" fill="#d2555f"/></g><defs ><path id="B" d="M81.46 28.575H12.244c-.652 0-1.183-.717-1.183-1.368s.53-1.368 1.183-1.368H81.46c.65 0 1.183.717 1.183 1.368s-.532 1.368-1.183 1.368z"/><path id="C" d="M52.725 23.788H12.257c-.65 0-1.196-.716-1.196-1.368s.545-1.367 1.196-1.367h40.468c.65 0 1.197.716 1.197 1.367s-.546 1.368-1.197 1.368z"/></defs></svg>