<svg xmlns="http://www.w3.org/2000/svg" xmlns:xlink="http://www.w3.org/1999/xlink" width="100%" height="100%" viewBox="0 0 125 100" fill-rule="evenodd" stroke-linejoin="round" stroke-miterlimit="1.41421"><g fill-rule="nonzero"><path d="M121.795 100H3.205C1.447 100 0 98.53 0 96.742V3.258C0 1.47 1.447 0 3.205 0h118.6C123.553 0 125 1.47 125 3.258v93.484c0 1.8-1.435 3.258-3.205 3.258z" fill="#c7cfe2"/><path d="M9.773 19.547H115.2c1.787.001 3.257 1.47 3.258 3.258v67.422c-.001 1.787-1.47 3.257-3.258 3.258H9.773c-1.787 0-3.257-1.47-3.258-3.258l.001-67.422c0-1.787 1.47-3.257 3.257-3.258z" fill="#fff"/><path d="M9.8 13.03a3.27 3.27 0 0 1-3.274-3.258c0-1.8 1.44-3.257 3.242-3.257H9.8c1.8 0 3.26 1.457 3.26 3.257S11.59 13.03 9.8 13.03z" fill="#ff507d"/><path d="M19.563 13.03a3.27 3.27 0 0 1-3.274-3.258c0-1.8 1.442-3.257 3.243-3.257h.03c1.8 0 3.26 1.457 3.26 3.257s-1.458 3.258-3.26 3.258z" fill="#fff082"/><path d="M29.337 13.03a3.27 3.27 0 0 1-3.274-3.258c0-1.8 1.44-3.257 3.242-3.257h.032c1.8 0 3.258 1.457 3.258 3.257s-1.457 3.258-3.258 3.258z" fill="#c8ff82"/><path d="M92.395 13.03H42.352c-1.788 0-3.258-1.47-3.258-3.256 0-1.802 1.458-3.26 3.258-3.26h50.043c1.8 0 3.257 1.457 3.257 3.257s-1.456 3.258-3.257 3.258zm22.804 0h-9.773c-1.8 0-3.258-1.457-3.258-3.258s1.457-3.257 3.258-3.257h9.773c1.8 0 3.26 1.457 3.26 3.257S117 13.03 115.2 13.03z" fill="#afb9d2"/><g fill="#d0d6d9"><use xlink:href="#B"/><path d="M108.613 44.482H16.325c-.868 0-1.578-.955-1.578-1.823s.7-1.824 1.578-1.824h92.288c.868 0 1.578.955 1.578 1.824s-.7 1.823-1.578 1.823z"/></g><path d="M70.3 31.718H16.343c-.87 0-1.596-.956-1.596-1.824s.727-1.824 1.596-1.824H70.3c.868 0 1.596.956 1.596 1.824s-.728 1.824-1.596 1.824z" fill="#8fd8ff"/><g fill="#d0d6d9"><path d="M108.613 59.07H16.325c-.868 0-1.578-.955-1.578-1.824s.7-1.823 1.578-1.823h92.288c.868 0 1.578.955 1.578 1.823s-.7 1.824-1.578 1.824z"/><use xlink:href="#B" y="27.354"/></g><path d="M70.3 52.688H16.343c-.87 0-1.596-.955-1.596-1.824s.727-1.823 1.596-1.823H70.3c.868 0 1.596.956 1.596 1.823s-.728 1.824-1.596 1.824z" fill="#8fd8ff"/></g><path d="M69.016 75.635a3.15 3.15 0 0 0-3.15-3.15h-56.2a3.15 3.15 0 0 0-3.15 3.15v14.7a3.15 3.15 0 0 0 3.15 3.15h56.2a3.15 3.15 0 0 0 3.15-3.15v-14.7z" fill="#ff6469"/><g fill-rule="nonzero"><path d="M57.904 80.985h-5.827c-.952 0-1.725.896-1.725 2s.773 2 1.725 2h5.827c.952 0 1.724-.896 1.724-2s-.772-2-1.724-2z" fill="#ffdc69"/><path d="M43.663 80.985H17.628c-.952 0-1.724.896-1.724 2s.772 2 1.724 2h26.035c.952 0 1.724-.896 1.724-2s-.772-2-1.724-2z" fill="#d2555f"/></g><defs ><path id="B" d="M108.613 38.1H16.325c-.868 0-1.578-.956-1.578-1.824s.7-1.824 1.578-1.824h92.288c.868 0 1.578.956 1.578 1.824s-.7 1.824-1.578 1.824z"/></defs></svg>